<svg width="264" height="90" viewBox="0 0 264 90" fill="none" xmlns="http://www.w3.org/2000/svg">
<circle cx="45" cy="45" r="45" fill="black"/>
<path d="M53.1516 71L41.6016 50.6H36.6516V71H26.1516V18.65H45.8016C49.8516 18.65 53.3016 19.375 56.1516 20.825C59.0016 22.225 61.1266 24.15 62.5266 26.6C63.9766 29 64.7016 31.7 64.7016 34.7C64.7016 38.15 63.7016 41.275 61.7016 44.075C59.7016 46.825 56.7266 48.725 52.7766 49.775L65.3016 71H53.1516ZM36.6516 42.725H45.4266C48.2766 42.725 50.4016 42.05 51.8016 40.7C53.2016 39.3 53.9016 37.375 53.9016 34.925C53.9016 32.525 53.2016 30.675 51.8016 29.375C50.4016 28.025 48.2766 27.35 45.4266 27.35H36.6516V42.725Z" fill="white"/>
<path d="M97.64 50.68C97.64 46.2 98.52 42.2267 100.28 38.76C102.093 35.2933 104.547 32.6267 107.64 30.76C110.733 28.8933 114.173 27.96 117.96 27.96C120.84 27.96 123.587 28.6 126.2 29.88C128.813 31.1067 130.893 32.76 132.44 34.84V13.8H143.8V73H132.44V66.44C131.053 68.6267 129.107 70.3867 126.6 71.72C124.093 73.0533 121.187 73.72 117.88 73.72C114.147 73.72 110.733 72.76 107.64 70.84C104.547 68.92 102.093 66.2267 100.28 62.76C98.52 59.24 97.64 55.2133 97.64 50.68ZM132.52 50.84C132.52 48.12 131.987 45.8 130.92 43.88C129.853 41.9067 128.413 40.4133 126.6 39.4C124.787 38.3333 122.84 37.8 120.76 37.8C118.68 37.8 116.76 38.3067 115 39.32C113.24 40.3333 111.8 41.8267 110.68 43.8C109.613 45.72 109.08 48.0133 109.08 50.68C109.08 53.3467 109.613 55.6933 110.68 57.72C111.8 59.6933 113.24 61.2133 115 62.28C116.813 63.3467 118.733 63.88 120.76 63.88C122.84 63.88 124.787 63.3733 126.6 62.36C128.413 61.2933 129.853 59.8 130.92 57.88C131.987 55.9067 132.52 53.56 132.52 50.84ZM195.939 49.88C195.939 51.48 195.832 52.92 195.619 54.2H163.219C163.485 57.4 164.605 59.9067 166.579 61.72C168.552 63.5333 170.979 64.44 173.859 64.44C178.019 64.44 180.979 62.6533 182.739 59.08H194.819C193.539 63.3467 191.085 66.8667 187.459 69.64C183.832 72.36 179.379 73.72 174.099 73.72C169.832 73.72 165.992 72.7867 162.579 70.92C159.219 69 156.579 66.3067 154.659 62.84C152.792 59.3733 151.859 55.3733 151.859 50.84C151.859 46.2533 152.792 42.2267 154.659 38.76C156.525 35.2933 159.139 32.6267 162.499 30.76C165.859 28.8933 169.725 27.96 174.099 27.96C178.312 27.96 182.072 28.8667 185.379 30.68C188.739 32.4933 191.325 35.08 193.139 38.44C195.005 41.7467 195.939 45.56 195.939 49.88ZM184.339 46.68C184.285 43.8 183.245 41.5067 181.219 39.8C179.192 38.04 176.712 37.16 173.779 37.16C171.005 37.16 168.659 38.0133 166.739 39.72C164.872 41.3733 163.725 43.6933 163.299 46.68H184.339ZM222.594 62.68L233.794 28.68H245.714L229.314 73H215.714L199.394 28.68H211.394L222.594 62.68ZM256.964 73.56C254.938 73.56 253.258 72.9467 251.924 71.72C250.644 70.44 250.004 68.8667 250.004 67C250.004 65.1333 250.644 63.5867 251.924 62.36C253.258 61.08 254.938 60.44 256.964 60.44C258.938 60.44 260.564 61.08 261.844 62.36C263.124 63.5867 263.764 65.1333 263.764 67C263.764 68.8667 263.124 70.44 261.844 71.72C260.564 72.9467 258.938 73.56 256.964 73.56Z" fill="black"/>
</svg>
